HIERARCHY
ROOT Hips
{
  OFFSET -35.4901 99.2528 17.4586
  CHANNELS 6 Xposition Yposition Zposition Zrotation Xrotation Yrotation
  JOINT LeftUpLeg
  {
    OFFSET 8.64259 1.95398 -2.38835
    CHANNELS 3 Zrotation Xrotation Yrotation
    JOINT LeftLeg
    {
      OFFSET 43.7702 0 0
      CHANNELS 3 Zrotation Xrotation Yrotation
      JOINT LeftFoot
      {
        OFFSET 40.6238 0 0
        CHANNELS 3 Zrotation Xrotation Yrotation
        JOINT LeftToeBase
        {
          OFFSET 12.7242 0 0
          CHANNELS 3 Zrotation Xrotation Yrotation
          End Site
          {
            OFFSET 0 0 0
          }
        }
      }
    }
  }
  JOINT RightUpLeg
  {
    OFFSET -8.2249 1.95398 -2.59336
    CHANNELS 3 Zrotation Xrotation Yrotation
    JOINT RightLeg
    {
      OFFSET 43.5653 0 0
      CHANNELS 3 Zrotation Xrotation Yrotation
      JOINT RightFoot
      {
        OFFSET 40.6238 0 0
        CHANNELS 3 Zrotation Xrotation Yrotation
        JOINT RightToeBase
        {
          OFFSET 12.7242 0 0
          CHANNELS 3 Zrotation Xrotation Yrotation
          End Site
          {
            OFFSET 0 0 0
          }
        }
      }
    }
  }
  JOINT Spine
  {
    OFFSET 0.165834 0.87714 6.61349
    CHANNELS 3 Zrotation Xrotation Yrotation
    JOINT Spine1
    {
      OFFSET 7.38963 1.71661e-005 0
      CHANNELS 3 Zrotation Xrotation Yrotation
      JOINT Spine2
      {
        OFFSET 11.9445 1.14441e-005 0
        CHANNELS 3 Zrotation Xrotation Yrotation
        JOINT Spine3
        {
          OFFSET 14.7254 4.19617e-005 0
          CHANNELS 3 Zrotation Xrotation Yrotation
          JOINT Spine4
          {
            OFFSET 10.9679 0 0
            CHANNELS 3 Zrotation Xrotation Yrotation
            JOINT RightShoulder
            {
              OFFSET 2.46616 -1.6653 3.69651
              CHANNELS 3 Zrotation Xrotation Yrotation
              JOINT RightArm
              {
                OFFSET 13.0012 0 0
                CHANNELS 3 Zrotation Xrotation Yrotation
                JOINT RightForeArm
                {
                  OFFSET 28.7848 1.52588e-005 0
                  CHANNELS 3 Zrotation Xrotation Yrotation
                  JOINT RightHand
                  {
                    OFFSET 26.5688 1.52588e-005 0
                    CHANNELS 3 Zrotation Xrotation Yrotation
                    End Site
                    {
                      OFFSET 0 0 0
                    }
                  }
                }
              }
            }
            JOINT LeftShoulder
            {
              OFFSET 2.38034 -1.29275 -3.7523
              CHANNELS 3 Zrotation Xrotation Yrotation
              JOINT LeftArm
              {
                OFFSET 16.3182 6.10351e-005 0
                CHANNELS 3 Zrotation Xrotation Yrotation
                JOINT LeftForeArm
                {
                  OFFSET 27.0901 0 0
                  CHANNELS 3 Zrotation Xrotation Yrotation
                  JOINT LeftHand
                  {
                    OFFSET 24.5451 1.52588e-005 0
                    CHANNELS 3 Zrotation Xrotation Yrotation
                    End Site
                    {
                      OFFSET 0 0 0
                    }
                  }
                }
              }
            }
            JOINT Neck
            {
              OFFSET 5.0226 -0.0266342 0
              CHANNELS 3 Zrotation Xrotation Yrotation
              JOINT Head
              {
                OFFSET 6.69364 2.86102e-005 0
                CHANNELS 3 Zrotation Xrotation Yrotation
                End Site
                {
                  OFFSET 0 0 0
                }
              }
            }
          }
        }
      }
    }
  }
}
MOTION
Frames:	15
Frame Time:	0.0416667
3.9608 95.4705 -324.655 116.736 -49.0576 111.191 -168.633 12.0524 93.4427 -31.9457 64.361 -17.2397 72.7419 16.8681 6.06382 16.4476 -1.66919 3.2129 -143.6 -18.0753 130.985 21.3023 66.7304 -21.6863 86.6104 -2.08608 -1.25284 16.841 -4.19894 9.88473 -2.50024 8.68004 -89.6158 9.54252 -4.81175 1.12893 -2.1202 -4.75741 1.34006 -24.7271 -4.92806 -0.372934 -4.71442 -4.92808 -0.372941 89.3943 -32.4988 -106.994 42.4875 -16.4378 -2.58824 2.5191 -28.5456 -19.0702 -24.7486 -0.203345 -7.4372 -82.284 -48.8423 90.2482 -26.2267 10.563 5.34605 5.65572 11.8535 -15.3301 -1.8211 -0.0864294 -5.87256 -5.12762 -1.85708 1.56598 -1.79877 -1.99831 -1.4768 
4.2229 94.9013 -324.291 113.03 -50.6335 106.236 -170.719 13.7588 85.6832 -27.9025 57.8234 -16.8724 72.9044 14.5851 4.84843 15.6199 -0.772047 2.04804 -147.45 -19.9804 128.06 24.4502 62.4427 -24.6723 85.1597 -2.12697 -0.503757 18.4046 -3.46309 8.48164 -2.6929 8.6018 -89.7644 9.70053 -5.26179 0.885417 -1.96011 -5.21772 1.11675 -24.5811 -5.28392 -0.74147 -4.56849 -5.28391 -0.741475 87.293 -29.7814 -112.173 38.8866 -14.9739 -7.12362 3.65039 -26.6583 -17.2854 -24.8296 -0.0174801 -8.12301 -82.024 -54.357 91.0676 -23.4978 11.1856 2.95046 4.27687 9.96274 -13.5905 -2.09658 -0.0863973 -6.07557 -4.57975 -0.980597 6.68175 0.260163 -1.69865 -2.84071 
4.65621 94.9554 -325.415 109.481 -59.6762 105.524 -176.096 18.563 80.8296 -30.0846 40.5575 -6.39246 72.6277 9.02269 1.61267 16.5533 -1.39718 2.84867 -163.666 -25.251 118.992 12.8684 41.5275 -18.7862 82.934 -1.73688 1.73261 20.7725 -3.13655 7.98738 -1.82584 8.24791 -90.1247 10.3817 -3.69435 0.0731411 -1.2845 -3.68754 0.235851 -23.8561 -3.54543 -1.0418 -3.84347 -3.54542 -1.0418 87.8518 -28.1996 -111.808 37.7738 -15.3869 -10.333 3.61466 -27.0614 -17.0063 -22.7518 0.0205373 -8.75536 -81.7342 -57.4822 91.6882 -22.4376 12.3087 2.79045 3.32438 8.32314 -13.4458 -2.24556 -0.0864761 -5.56331 -2.78287 -0.588972 9.77411 -0.512909 -1.76865 -4.56803 
5.24663 95.0325 -324.619 119.8 -71.0269 115.714 179.979 18.557 79.1535 -29.3734 22.779 -1.96935 68.6359 4.00165 -0.0692093 12.6913 -1.96249 3.67693 -178.757 -30.9119 102.206 1.6116 20.3194 -4.65668 82.0753 -5.15978 2.40371 31.4017 -3.44693 9.60826 -0.665826 8.1814 -89.9746 10.5126 -1.31453 0.167822 -1.15767 -1.30587 0.225519 -23.6987 -1.30419 -0.235091 -3.68602 -1.30418 -0.235094 87.8624 -28.0318 -111.865 38.4936 -15.8001 -11.1221 3.7306 -25.9393 -16.7216 -17.7805 -0.00313504 -9.35708 -81.5135 -58.4153 92.0521 -22.8185 11.5236 4.45339 3.2461 7.42238 -13.1269 -2.75481 -0.086456 -5.69839 -2.25421 -0.105861 9.81698 -0.803043 -1.33218 -4.78439 
5.46982 96.1183 -320.957 142.807 -78.78 137.646 178.816 17.9686 78.4915 -30.308 14.4024 -1.03567 65.7156 2.14793 0.0149033 10.0659 -3.3023 5.32722 170.154 -33.3655 89.3495 0.0409478 1.69996 -1.27857 72.2432 -5.00943 0.0764889 38.9254 -2.02755 5.45023 0.277894 8.06162 -89.7258 10.7491 0.679936 0.48258 -0.921796 0.700517 0.452194 -23.4571 0.503459 0.664622 -3.44447 0.503464 0.664621 89.2294 -27.3507 -109.398 41.3842 -16.4013 -10.9299 3.88829 -28.0744 -16.5637 -25.8461 -0.220864 -7.17532 -81.1292 -59.7285 92.6511 -21.2688 9.23469 -0.314662 1.98347 9.89298 -3.51803 -2.29671 -0.0860186 -8.09983 -1.43428 -0.212922 10.3584 -1.69329 -1.54354 -6.05148 
5.83146 97.1262 -316.505 -177.505 -82.0667 175.259 178.574 15.1658 77.3003 -28.4724 6.61693 -1.97741 67.6735 3.1808 -1.27991 9.92909 -3.14312 5.13454 160.662 -25.0933 76.9545 -11.6151 -13.0219 0.20567 57.0641 0.654988 -1.34184 60.8818 -3.02207 19.8314 0.800601 7.87107 -89.3334 11.1217 1.90309 1.14183 -0.548317 1.95149 1.05694 -23.0867 1.47198 1.66101 -3.07407 1.47197 1.66099 88.3978 -28.2694 -110.678 42.2892 -15.1384 -8.95648 3.69005 -34.2066 -16.4116 -23.7158 -0.105508 -9.04268 -81.5198 -59.1767 92.0879 -20.2002 10.9218 0.784113 1.4074 5.0136 -6.9817 -2.33739 -0.0900271 -5.72735 -2.82647 -0.464502 8.28395 -1.30124 -1.44036 -4.67878 
6.22791 97.0311 -312.872 -135.75 -80.4513 -144.217 179.668 13.7936 76.9321 -29.1404 1.50431 -4.0893 70.5566 4.3286 -1.33241 11.3092 -2.78045 4.7153 160.958 -12.726 72.6187 -34.1593 -19.7562 -2.38171 70.0799 -4.63897 5.70862 36.968 -3.33939 9.44044 1.24142 7.78693 -89.1512 11.2817 2.86581 1.40652 -0.386727 2.92493 1.27895 -22.9337 2.31065 2.20295 -2.92104 2.31065 2.20294 88.4547 -28.0663 -110.654 42.2683 -16.2104 -7.06328 3.80932 -30.813 -17.1792 -24.2877 0.06155 -9.32059 -81.9232 -58.8154 91.5137 -19.1997 10.6312 -2.25053 1.5047 2.45409 -8.11116 -1.2495 -0.103086 -5.82602 -2.1269 -0.636191 7.32758 -1.51716 -1.53562 -4.07236 
6.13509 97.1622 -309.414 -125.46 -77.0142 -133.473 -179.97 10.5407 77.0864 -29.6029 -1.69043 -4.70409 73.0533 5.22776 -1.37017 13.9305 -3.78144 5.98847 167.658 -0.355878 72.9394 -55.8784 -25.8785 -4.99895 56.3873 0.913004 5.12541 32.5291 -2.96965 8.27024 1.31838 7.9527 -89.1758 10.9503 3.00617 1.35503 -0.717714 3.0629 1.22132 -23.2674 2.45998 2.19612 -3.25473 2.45999 2.19612 88.5185 -28.5027 -110.331 40.8717 -15.9423 -6.2683 2.39163 -26.8919 -18.2542 -24.2393 0.139322 -9.11099 -82.2429 -57.9724 91.0152 -18.5638 7.86261 -7.74836 3.4872 6.12499 -8.05253 -1.41394 -0.112317 -6.90199 -0.731355 0.0893612 5.60522 -0.942085 -0.686311 -3.39181 
5.28368 97.3971 -305.734 -126.442 -75.8283 -132.165 -179.015 7.85019 79.6549 -32.0085 -1.23595 -4.67792 76.4321 5.94631 -2.33429 13.0118 -2.80636 4.73615 174.072 6.12258 77.3886 -64.8569 -26.0443 -5.52302 64.4026 -2.46113 0.642232 30.3165 -2.16341 5.85133 1.09596 8.14763 -89.433 10.5695 2.44346 0.907332 -1.09936 2.48104 0.798843 -23.646 2.05781 1.59994 -3.63331 2.0578 1.59993 88.4629 -29.3189 -110.084 39.1446 -13.4295 -6.26988 2.392 -26.1935 -17.663 -25.3944 -0.256719 -6.76064 -82.8101 -57.2715 90.1743 -15.5228 8.45986 -14.6527 3.01811 6.47859 -7.52491 -0.441701 -0.122288 -6.25413 0.173212 0.373067 3.87731 -0.869811 -0.20103 -2.38706 
4.52886 98.0239 -302.129 -127.637 -75.9411 -131.273 -179.04 3.99043 81.2594 -29.912 -1.5662 -3.44331 77.7913 6.27074 -2.88892 15.7595 -3.98283 6.2991 179.205 11.552 82.3754 -63.4061 -16.3662 -5.98671 76.2289 -8.23502 -1.10577 22.297 -2.72318 7.13474 0.736844 8.22078 -89.6429 10.4289 1.63153 0.566067 -1.24108 1.65487 0.493684 -23.7817 1.38598 1.03031 -3.76902 1.38597 1.0303 88.8487 -28.8153 -109.533 39.7604 -11.205 -5.92359 2.1698 -25.2855 -16.8102 -23.8151 -0.0775304 -7.73253 -82.9184 -55.7385 89.8942 -13.6852 8.19518 -20.7877 3.14189 8.3867 -6.74991 -0.575976 -0.139429 -7.3018 0.169772 1.23145 2.85007 -1.40471 0.799225 -2.86706 
3.32665 98.8409 -298.601 -130.467 -77.5011 -131.506 -178.614 1.1078 83.9801 -28.038 0.906684 -1.705 78.1283 6.18684 -2.86632 15.946 -3.86593 6.15678 -177.556 15.9218 88.2794 -52.5083 -6.9661 -6.28401 75.6663 -8.32175 -1.00234 20.5553 -1.44028 4.17242 0.353786 8.18639 -89.8946 10.5011 0.753172 0.143292 -1.16965 0.758743 0.11 -23.706 0.675282 0.363036 -3.69336 0.675285 0.363033 88.7487 -29.5278 -109.427 38.9728 -11.5108 -5.07604 3.94985 -22.295 -14.8185 -25.2324 0.611353 -10.6174 -84.0345 -52.7913 88.0077 -14.1151 8.0957 -24.5091 4.09159 9.67587 -8.46269 -3.14618 -0.0334871 -8.66239 -0.317422 1.51114 -0.69973 -1.21392 1.5749 -1.78394 
2.40178 99.1128 -294.645 -138.451 -80.0669 -137.938 -178.357 -1.63883 85.684 -26.661 4.29473 -0.231443 79.7844 6.87115 -2.17016 13.6613 -2.06407 3.79132 -177.737 17.8506 91.4211 -35.8963 -7.95691 -5.57758 69.8122 -6.19021 -1.67506 23.7576 -2.4249 6.43705 -0.0593934 8.2159 -90.0006 10.4419 -0.118536 0.00912305 -1.22903 -0.118023 0.0143338 -23.7642 -0.115799 -0.0269165 -3.75156 -0.1158 -0.0269161 88.5407 -31.7157 -108.932 38.2334 -9.75585 -1.69462 1.45234 -24.436 -18.322 -26.1969 0.238762 -8.92459 -85.1667 -49.0161 85.8516 -15.5967 8.46937 -27.4549 5.11156 8.82745 -11.7504 -4.35996 0.0151798 -10.7451 0.794114 0.925898 -5.50484 -1.39966 1.72714 0.801214 
1.68279 98.6241 -289.986 -146.174 -81.6981 -145.114 -177.585 -4.40518 87.0462 -26.3234 6.39344 -0.073436 82.3239 7.84462 -1.62585 14.0913 -1.26589 2.75496 179.548 16.1953 92.7736 -15.2214 -17.7724 -2.74294 64.5163 -3.95953 -2.09011 24.6959 -3.27808 8.51869 -0.292219 8.25405 -90.0602 10.3657 -0.609667 -0.0664399 -1.30512 -0.612007 -0.039544 -23.8413 -0.561511 -0.246604 -3.82863 -0.56152 -0.246605 88.7508 -33.4465 -107.855 37.8641 -8.16065 0.803169 1.19977 -25.1626 -19.0993 -26.3073 -0.0102161 -7.78638 -85.5862 -47.0885 84.9348 -17.5757 8.22506 -30.6856 7.04342 11.4861 -14.359 -1.37097 -0.136882 -9.67018 1.67372 0.420952 -8.24541 -0.922064 1.70647 2.4428 
0.936926 97.6814 -284.522 -153.553 -83.0599 -151.745 -176.338 -7.87279 89.1148 -25.6632 8.65076 -0.0903498 85.4192 9.10518 -2.59129 17.2402 -3.99707 6.35917 177.374 17.8964 95.6819 -8.18167 -16.8756 -1.56654 67.1229 -3.58145 -0.100341 25.4636 -2.64566 7.01044 -0.502349 8.22971 -90.2051 10.4128 -1.09465 -0.31142 -1.25766 -1.10729 -0.26293 -23.7955 -0.950449 -0.626025 -3.78285 -0.95045 -0.626031 87.9372 -33.8706 -109.21 37.7615 -7.27596 2.99798 2.636 -26.0692 -16.6807 -23.6281 0.0408678 -8.54348 -85.5126 -47.7729 85.1502 -18.3435 8.84263 -32.7414 7.87551 12.5557 -15.9957 -0.776187 -0.164871 -9.71989 2.00216 0.313419 -8.29362 -1.26623 1.61868 1.5915 
0.303516 96.4565 -278.333 -163.563 -83.7796 -161.769 -175.104 -12.7084 90.455 -23.9251 10.5815 -0.268209 87.4899 10.1834 -3.67828 17.3251 -3.73962 6.04251 177.274 18.0902 96.4929 -7.68504 -15.0768 -0.637673 62.8408 -1.88729 -1.20704 25.2363 -2.42672 6.48195 -0.659302 8.15943 -90.2287 10.5528 -1.41819 -0.327436 -1.11743 -1.43122 -0.26469 -23.6573 -1.25422 -0.738579 -3.64461 -1.25421 -0.738569 87.8813 -34.5098 -109.063 38.3631 -6.6564 4.31108 4.37365 -26.4673 -13.4952 -21.892 0.0963734 -9.25189 -85.6169 -48.6724 85.1189 -18.5607 10.7558 -32.7226 7.95903 14.1097 -16.9266 -0.702785 -0.15999 -9.00104 1.95705 0.285775 -8.5688 -1.87271 1.62306 0.927284 
